<svg xmlns="http://www.w3.org/2000/svg" width="189" height="27" viewBox="0 0 189 27">
  <defs>
    <linearGradient id="a" x1="-2.579%" x2="634.314%" y1="109.519%" y2="22.622%">
      <stop stop-color="#D05F48" offset="0%"/>
      <stop stop-color="#6C5899" offset="56.073%"/>
      <stop stop-color="#2E85D1" offset="100%"/>
    </linearGradient>
    <linearGradient id="b" x1="-23.391%" y1="100%" y2="0%">
      <stop stop-color="#D05F48" offset="0%"/>
      <stop stop-color="#6C5899" offset="56.073%"/>
      <stop stop-color="#2E85D1" offset="100%"/>
    </linearGradient>
  </defs>
  <g fill="none" fill-rule="evenodd">
    <path fill="url(#a)" fill-rule="nonzero" d="M19.56 26.978L14.08 27l.392-.75-.175-.087c-.415-.198-.808-.374-1.18-.528-2.773-1.124-5.46-1.718-7.36-1.586-1.135.086-1.92.416-2.25.99-.217.395-.217.86 0 1.41-.894-1.125-1.287-2.27-1.025-3.195.328-1.145 1.594-1.872 3.604-2.07.13 0 .262-.022.393-.022 2.75-.176 6.2.484 9.716 1.894l.153.066.46-.815 2.75 4.668zm6.116-1.013c-1.616-3.193-11.837-9.69-19.874-9.69h-.415c-2.927.088-4.02 1.387-4.39 2.466-.524 1.456-.066 3.37 1.157 5.288C.888 22.31.124 20.393.014 18.5c-.11-1.873.415-3.48 1.55-4.648 1.53-1.585 3.932-2.4 7.164-2.4 8.714 0 20.42 5.968 20.595 9.492l-.066.242c-.567 1.52-.742 1.828-1.463 3.083-.502.77-.546.813-1.55 2.024l-.35.353c-.022-.2-.087-.42-.218-.683zM30 16.45C27.882 12.51 16.612 6.123 7.876 6.123c-.677 0-1.354.044-1.987.132l-.24.023.675 1.255-4.718-.154 2.425-4.076.742 1.388.13-.043c1.574-.596 3.386-.88 5.396-.88 6.203 0 13.388 2.84 17.887 7.067.46.42 1.05 1.08 1.31 1.828l.066.308c.066.266.13.574.175.816.218 1.497.24 1.585.262 2.51v.154zM19.56 1.63c-1.768-.595-3.603-.903-5.437-.903-1.66 0-3.276.242-4.805.75C11.24.507 13.336 0 15.498 0c1.486 0 2.95.242 4.368.727 3.473 1.167 6.334 3.7 7.972 6.96-1.944-2.754-4.87-4.912-8.277-6.057z"/>
    <text fill="url(#b)" font-family="ProximaNova-Semibold, Proxima Nova" font-size="20" font-weight="500" letter-spacing="2">
      <tspan x="35.44" y="20">Premio.ondata</tspan>
    </text>
  </g>
</svg>
